<?xml version='1.0' encoding='utf-8'?>
<svg xmlns="http://www.w3.org/2000/svg" width="100%" height="100%" viewBox="0 0 20834 20834" version="1.1" style="fill-rule:evenodd;clip-rule:evenodd;stroke-linejoin:round;stroke-miterlimit:2;"><path id="quarter-tick" d="M20100,10525l0,-108.333l-2470.83,-0l-0,108.333l2470.83,-0Zm-2.118,-338.009l-3.781,-108.268l-2469.33,86.231l3.781,108.267l2469.33,-86.23Zm-13.913,-337.73l-7.557,-108.07l-2464.82,172.357l7.557,108.07l2464.82,-172.357Zm-25.691,-337.038l-11.324,-107.74l-2457.3,258.272l11.324,107.74l2457.3,-258.272Zm-37.438,-335.937l-15.078,-107.279l-2446.79,343.874l15.077,107.279l2446.79,-343.874Zm-49.14,-334.425l-18.812,-106.688l-2433.3,429.056l18.811,106.688l2433.3,-429.056Zm-60.78,-332.507l-22.524,-105.966l-2416.84,513.716l22.524,105.966l2416.84,-513.716Zm-72.348,-330.182l-26.208,-105.116l-2397.44,597.749l26.208,105.115l2397.44,-597.748Zm-83.827,-327.457l-29.861,-104.137l-2375.12,681.054l29.86,104.137l2375.12,-681.054Zm-95.204,-324.332l-33.477,-103.031l-2349.9,763.53l33.477,103.031l2349.9,-763.53Zm-106.465,-320.811l-37.052,-101.8l-2321.82,845.074l37.052,101.8l2321.82,-845.074Zm-117.597,-316.901l-40.582,-100.445l-2290.92,925.591l40.583,100.445l2290.92,-925.591Zm-128.584,-312.603l-44.063,-98.968l-2257.22,1004.98l44.063,98.967l2257.22,-1004.98Zm-139.416,-307.926l-47.49,-97.369l-2220.77,1083.14l47.49,97.369l2220.77,-1083.14Zm-150.077,-302.872l-50.859,-95.653l-2181.62,1159.99l50.86,95.653l2181.62,-1159.99Zm-160.556,-297.451l-54.167,-93.819l-2139.8,1235.42l54.167,93.819l2139.8,-1235.42Zm-170.839,-291.665l-57.408,-91.872l-2095.39,1309.34l57.407,91.872l2095.39,-1309.34Zm-180.914,-285.526l-60.579,-89.813l-2048.41,1381.67l60.579,89.812l2048.41,-1381.67Zm-190.768,-279.038l-63.677,-87.644l-1998.95,1452.32l63.676,87.643l1998.95,-1452.32Zm-200.391,-272.211l-66.697,-85.368l-1947.04,1521.2l66.697,85.368l1947.04,-1521.2Zm-209.768,-265.051l-69.636,-82.988l-1892.77,1588.22l69.636,82.988l1892.77,-1588.22Zm-218.891,-257.569l-72.489,-80.507l-1836.19,1653.31l72.489,80.508l1836.19,-1653.31Zm-227.747,-249.772l-75.254,-77.929l-1777.37,1716.38l75.255,77.929l1777.37,-1716.38Zm-236.324,-241.673l-77.929,-75.254l-1716.38,1777.37l77.929,75.255l1716.38,-1777.37Zm-244.615,-233.277l-80.508,-72.489l-1653.31,1836.19l80.508,72.489l1653.31,-1836.19Zm-252.607,-224.599l-82.989,-69.635l-1588.22,1892.77l82.988,69.635l1588.22,-1892.77Zm-260.292,-215.645l-85.368,-66.697l-1521.2,1947.04l85.368,66.697l1521.2,-1947.04Zm-267.659,-206.431l-87.644,-63.677l-1452.32,1998.95l87.643,63.676l1452.32,-1998.95Zm-274.701,-196.963l-89.812,-60.579l-1381.67,2048.41l89.813,60.579l1381.67,-2048.41Zm-281.407,-187.257l-91.871,-57.408l-1309.34,2095.39l91.872,57.408l1309.34,-2095.39Zm-287.77,-177.321l-93.82,-54.167l-1235.42,2139.8l93.819,54.167l1235.42,-2139.8Zm-293.784,-167.171l-95.653,-50.859l-1159.99,2181.62l95.653,50.86l1159.99,-2181.62Zm-299.439,-156.815l-97.369,-47.491l-1083.14,2220.77l97.369,47.49l1083.14,-2220.77Zm-304.729,-146.27l-98.968,-44.064l-1004.98,2257.22l98.967,44.063l1004.98,-2257.22Zm-309.649,-135.546l-100.445,-40.583l-925.59,2290.92l100.445,40.582l925.59,-2290.92Zm-314.19,-124.657l-101.8,-37.052l-845.075,2321.82l101.8,37.052l845.075,-2321.82Zm-318.35,-113.616l-103.031,-33.477l-763.529,2349.9l103.031,33.476l763.529,-2349.9Zm-322.12,-102.436l-104.137,-29.861l-681.054,2375.12l104.137,29.86l681.054,-2375.12Zm-325.5,-91.132l-105.115,-26.208l-597.749,2397.44l105.116,26.208l597.748,-2397.44Zm-328.481,-79.717l-105.966,-22.524l-513.715,2416.84l105.966,22.524l513.715,-2416.84Zm-331.064,-68.204l-106.687,-18.812l-429.056,2433.3l106.688,18.812l429.055,-2433.3Zm-333.242,-56.609l-107.279,-15.077l-343.873,2446.79l107.279,15.077l343.873,-2446.79Zm-335.015,-44.944l-107.739,-11.324l-258.273,2457.3l107.74,11.324l258.272,-2457.3Zm-336.379,-33.226l-108.069,-7.557l-172.357,2464.82l108.07,7.557l172.356,-2464.82Zm-337.334,-21.465l-108.267,-3.781l-86.231,2469.33l108.268,3.781l86.23,-2469.33Zm-337.877,-9.68l-108.333,0l-0,2470.83l108.333,-0l0,-2470.83Z"/><path id="quarter-tick-small" d="M15147.1,10525l0,-52.922l-1207.03,0l-0,52.922l1207.03,-0Zm-1.035,-165.121l-1.847,-52.89l-1206.29,42.125l1.847,52.889l1206.29,-42.124Zm-6.796,-164.985l-3.692,-52.793l-1204.09,84.198l3.692,52.793l1204.09,-84.198Zm-12.551,-164.647l-5.532,-52.632l-1200.42,126.169l5.532,52.632l1200.42,-126.169Zm-18.289,-164.108l-7.365,-52.407l-1195.28,167.986l7.366,52.407l1195.28,-167.986Zm-24.005,-163.37l-9.19,-52.118l-1188.69,209.598l9.189,52.118l1188.69,-209.598Zm-29.692,-162.433l-11.003,-51.766l-1180.65,250.956l11.003,51.765l1180.65,-250.955Zm-35.342,-161.298l-12.803,-51.35l-1171.17,292.007l12.803,51.35l1171.17,-292.007Zm-40.951,-159.966l-14.587,-50.872l-1160.27,332.702l14.587,50.872l1160.27,-332.702Zm-46.508,-158.44l-16.354,-50.331l-1147.95,372.992l16.354,50.332l1147.95,-372.993Zm-52.009,-156.72l-18.101,-49.73l-1134.24,412.828l18.1,49.73l1134.24,-412.828Zm-57.447,-154.809l-19.825,-49.068l-1119.14,452.161l19.825,49.068l1119.14,-452.161Zm-62.815,-152.71l-21.526,-48.347l-1102.67,490.943l21.525,48.347l1102.68,-490.943Zm-68.106,-150.425l-23.2,-47.566l-1084.87,529.127l23.2,47.566l1084.87,-529.127Zm-73.315,-147.956l-24.845,-46.728l-1065.74,566.666l24.846,46.727l1065.74,-566.665Zm-78.433,-145.308l-26.461,-45.832l-1045.32,603.515l26.461,45.831l1045.32,-603.514Zm-83.457,-142.482l-28.044,-44.88l-1023.62,639.627l28.044,44.881l1023.62,-639.628Zm-88.378,-139.482l-29.594,-43.874l-1000.67,674.961l29.593,43.875l1000.67,-674.962Zm-93.192,-136.313l-31.107,-42.815l-976.507,709.473l31.107,42.815l976.507,-709.473Zm-97.893,-132.978l-32.582,-41.703l-951.152,743.121l32.582,41.703l951.152,-743.121Zm-102.474,-129.48l-34.018,-40.541l-924.637,775.863l34.017,40.541l924.638,-775.863Zm-106.931,-125.825l-35.412,-39.329l-896.997,807.66l35.412,39.328l896.997,-807.659Zm-111.256,-122.017l-36.763,-38.069l-868.264,838.473l36.763,38.068l868.264,-838.472Zm-115.448,-118.059l-38.068,-36.763l-838.473,868.263l38.069,36.763l838.472,-868.263Zm-119.497,-113.959l-39.328,-35.412l-807.66,896.997l39.329,35.412l807.659,-896.997Zm-123.401,-109.719l-40.541,-34.017l-775.862,924.637l40.54,34.018l775.863,-924.638Zm-127.155,-105.345l-41.703,-32.582l-743.121,951.151l41.703,32.582l743.121,-951.151Zm-130.755,-100.843l-42.814,-31.107l-709.474,976.506l42.815,31.107l709.473,-976.506Zm-134.194,-96.219l-43.874,-29.594l-674.962,1000.67l43.875,29.594l674.961,-1000.67Zm-137.47,-91.477l-44.88,-28.044l-639.628,1023.62l44.881,28.044l639.627,-1023.62Zm-140.579,-86.623l-45.832,-26.461l-603.514,1045.32l45.832,26.461l603.514,-1045.32Zm-143.516,-81.665l-46.728,-24.845l-566.665,1065.74l46.727,24.846l566.666,-1065.74Zm-146.28,-76.606l-47.565,-23.2l-529.127,1084.87l47.566,23.2l529.126,-1084.87Zm-148.863,-71.454l-48.347,-21.526l-490.942,1102.67l48.346,21.526l490.943,-1102.67Zm-151.267,-66.216l-49.068,-19.825l-452.161,1119.14l49.069,19.825l452.16,-1119.14Zm-153.485,-60.896l-49.73,-18.101l-412.828,1134.24l49.73,18.1l412.828,-1134.24Zm-155.517,-55.503l-50.332,-16.354l-372.992,1147.95l50.332,16.353l372.992,-1147.95Zm-157.359,-50.041l-50.872,-14.587l-332.702,1160.27l50.872,14.587l332.702,-1160.27Zm-159.01,-44.519l-51.35,-12.803l-292.007,1171.17l51.35,12.803l292.007,-1171.17Zm-160.467,-38.942l-51.766,-11.003l-250.955,1180.65l51.766,11.004l250.955,-1180.65Zm-161.728,-33.319l-52.118,-9.19l-209.598,1188.69l52.118,9.19l209.598,-1188.69Zm-162.792,-27.654l-52.407,-7.365l-167.986,1195.28l52.407,7.366l167.986,-1195.28Zm-163.659,-21.956l-52.632,-5.532l-126.169,1200.42l52.633,5.532l126.168,-1200.42Zm-164.324,-16.231l-52.794,-3.691l-84.198,1204.09l52.794,3.691l84.198,-1204.09Zm-164.792,-10.486l-52.889,-1.847l-42.125,1206.29l52.89,1.847l42.124,-1206.29Zm-165.056,-4.728l-52.922,-0l-0,1207.03l52.922,0l-0,-1207.03Z"/><path d="M10519,1301.27c-34.096,-0.382 -68.195,-0.574 -102.294,-0.574c-5031.24,0 -9115.97,4084.73 -9115.97,9115.97c0,5031.24 4084.73,9115.97 9115.97,9115.97c4994.71,0 9059.35,-4019.28 9115.4,-9013.68l-1102.12,-12.368c-49.271,4390.54 -3622.47,7923.86 -8013.28,7923.86c-4422.93,0 -8013.79,-3590.86 -8013.79,-8013.79c0,-4422.93 3590.86,-8013.79 8013.79,-8013.79c29.976,0 59.952,0.168 89.926,0.505l12.368,-1102.12Z"/><path d="M10500.9,2912.28c-28.07,-0.315 -56.143,-0.472 -84.215,-0.472c-4142.05,-0 -7504.86,3362.82 -7504.86,7504.86c-0,4142.05 3362.82,7504.86 7504.86,7504.86c4111.97,-0 7458.25,-3308.93 7504.39,-7420.65l-238.892,-2.681c-44.673,3980.82 -3284.43,7184.42 -7265.5,7184.42c-4010.19,-0 -7265.95,-3255.76 -7265.95,-7265.95c-0,-4010.19 3255.76,-7265.95 7265.95,-7265.95c27.179,-0 54.357,0.152 81.534,0.457l2.681,-238.892Z"/><path d="M10416.7,3828.47c3636.12,0 6588.19,2952.07 6588.19,6588.19c0,3636.12 -2952.07,6588.19 -6588.19,6588.19c-3636.12,0 -6588.19,-2952.07 -6588.19,-6588.19c0,-3636.12 2952.07,-6588.19 6588.19,-6588.19Zm-0,209.726c3520.37,0 6378.47,2858.1 6378.47,6378.47c-0,3520.37 -2858.1,6378.47 -6378.47,6378.47c-3520.37,-0 -6378.47,-2858.1 -6378.47,-6378.47c0,-3520.37 2858.1,-6378.47 6378.47,-6378.47Z"/><path d="M10416.7,5068.06c-467.423,0 -932.828,61.272 -1384.32,182.25l692.161,2583.18c225.748,-60.489 458.451,-91.125 692.162,-91.125l-0,-2674.31Z"/><path d="M8587.33,5390.62c-439.233,159.868 -855.615,376.623 -1238.51,644.725l1533.92,2190.66c191.445,-134.051 399.636,-242.429 619.252,-322.363l-914.666,-2513.03Z"/><path d="M6978.65,6319.39c-358.067,300.453 -675.203,646.547 -943.306,1029.44l2190.66,1533.92c134.051,-191.445 292.619,-364.492 471.652,-514.718l-1719.01,-2048.64Z"/><path d="M5784.63,7742.36c-233.711,404.8 -413.351,838.489 -534.328,1289.98l2583.18,692.161c60.489,-225.748 150.309,-442.592 267.164,-644.992l-2316.02,-1337.15Z"/><path d="M5149.31,9487.89c-81.167,460.321 -101.643,929.296 -60.904,1394.94l2664.13,-233.081c-20.37,-232.822 -10.132,-467.309 30.452,-697.47l-2633.68,-464.388Z"/><path d="M5149.31,11345.4c81.167,460.321 222.325,908.017 419.866,1331.64l2423.74,-1130.21c-98.771,-211.814 -169.35,-435.662 -209.933,-665.822l-2633.68,464.388Z"/><path d="M5784.63,13091c233.712,404.8 519.477,777.217 849.995,1107.73l1891.02,-1891.02c-165.258,-165.259 -308.141,-351.468 -424.997,-553.868l-2316.02,1337.15Z"/><path d="M6978.65,14513.9c358.066,300.453 753.972,552.673 1177.6,750.214l1130.21,-2423.74c-211.815,-98.771 -409.768,-224.881 -588.801,-375.107l-1719.01,2048.64Z"/><path d="M8587.33,15442.7c439.233,159.868 897.528,261.469 1363.17,302.208l233.081,-2664.13c-232.822,-20.369 -461.969,-71.17 -681.586,-151.104l-914.666,2513.03Z"/><path d="M10416.7,15765.3c467.422,-0 932.828,-61.272 1384.32,-182.25l-692.162,-2583.18c-225.747,60.489 -458.45,91.125 -692.161,91.125l-0,2674.31Z"/><path d="M12246,15442.7c439.234,-159.868 855.616,-376.622 1238.51,-644.725l-1533.92,-2190.66c-191.445,134.052 -399.636,242.429 -619.253,322.363l914.666,2513.03Z"/><path d="M13854.7,14513.9c358.066,-300.454 675.203,-646.548 943.305,-1029.44l-2190.66,-1533.92c-134.051,191.445 -292.62,364.492 -471.653,514.719l1719.01,2048.64Z"/><path d="M15048.7,13091c233.711,-404.799 413.351,-838.488 534.329,-1289.98l-2583.18,-692.161c-60.489,225.747 -150.309,442.592 -267.165,644.991l2316.02,1337.15Z"/><path d="M15684,11345.4c81.168,-460.321 101.643,-929.296 60.905,-1394.94l-2664.13,233.081c20.369,232.822 10.131,467.309 -30.452,697.47l2633.68,464.388Z"/><path d="M9493.1,2392.26l-152.267,19.486l1024.41,8004.92l152.268,-19.486l-1024.41,-8004.92Z"/><path d="M2905.4,7334.06l-55.917,142.962l7515.76,2939.65l55.918,-142.963l-7515.76,-2939.65Z"/><path d="M14320.4,17554l134.351,-74.262l-3904.06,-7063.03l-134.351,74.262l3904.06,7063.03Z"/><circle cx="10416.4" cy="10416.7" r="339.583"/><path d="M11393.9,356.825c-650.144,-63.174 -1304.88,-63.174 -1955.03,0l-484.136,507.92c-700.898,107.253 -1387.86,291.324 -2048.49,548.89l-673.234,-197.804c-594.629,270.362 -1161.65,597.731 -1693.1,977.514l-165.314,681.94c-553.369,443.333 -1056.26,946.226 -1499.6,1499.6l-681.94,165.314c-379.783,531.455 -707.152,1098.47 -977.514,1693.1l197.804,673.234c-257.566,660.623 -441.637,1347.59 -548.89,2048.49l-507.92,484.136c-63.174,650.145 -63.174,1304.88 0,1955.03l507.92,484.136c107.253,700.899 291.324,1387.86 548.89,2048.49l-197.804,673.234c270.362,594.629 597.731,1161.65 977.514,1693.1l681.94,165.314c443.333,553.37 946.226,1056.26 1499.6,1499.6l165.314,681.939c531.455,379.783 1098.47,707.152 1693.1,977.514l673.234,-197.804c660.623,257.566 1347.59,441.638 2048.49,548.89l484.136,507.92c650.145,63.175 1304.88,63.175 1955.03,0l484.136,-507.92c700.899,-107.252 1387.86,-291.324 2048.49,-548.89l673.234,197.804c594.629,-270.362 1161.65,-597.731 1693.1,-977.514l165.314,-681.939c553.37,-443.333 1056.26,-946.226 1499.6,-1499.6l681.939,-165.314c379.783,-531.454 707.152,-1098.47 977.514,-1693.1l-197.804,-673.234c257.566,-660.623 441.638,-1347.59 548.89,-2048.49l507.92,-484.136c63.175,-650.144 63.175,-1304.88 0,-1955.03l-507.92,-484.136c-107.252,-700.898 -291.324,-1387.86 -548.89,-2048.49l197.804,-673.234c-270.362,-594.629 -597.731,-1161.65 -977.514,-1693.1l-681.939,-165.314c-443.333,-553.369 -946.226,-1056.26 -1499.6,-1499.6l-165.314,-681.94c-531.454,-379.783 -1098.47,-707.152 -1693.1,-977.514l-673.234,197.804c-660.622,-257.566 -1347.59,-441.637 -2048.49,-548.89l-484.136,-507.92Zm-977.513,804.807c5107.99,0 9255.03,4147.04 9255.03,9255.03c0,5107.99 -4147.04,9255.03 -9255.03,9255.03c-5107.99,0 -9255.03,-4147.04 -9255.03,-9255.03c0,-5107.99 4147.04,-9255.03 9255.03,-9255.03Z"/></svg>