<?xml version="1.0" encoding="UTF-8"?>
<svg viewBox="0 0 401.02249 910.60956" xmlns="http://www.w3.org/2000/svg">
 <g transform="translate(-16.959 -56.186)">
  <path d="m143.38 56.72s-44.201 0.39374-47.877 48.757c-3.7731 49.644 33.012 69.243 33.012 69.243l1.4274 39.755s-44.901 3.5085-50.945 20.043c-19.738 53.996-61.499 163.49-61.499 163.49l89.556 50.528-36.327 66.084 10.423 2.1822 12.895-23.694-5.8263 16.673 8.07 2.5315 5.6919-14.401-4.8372 22.31 9.3636 1.9868 5.5703-11.595-3.4857 12.018 8.0992 1.7262 5.126-10.65-3.2123 11.041 11.585 2.4753-1.5036-87.417 11.38 46.51-44.562 426.44-49.518 50.353 122.34-0.16284-38.138-47.031 69.967-367.79 113.31 374.08-18.18 44.067h122.17l-66.023-53.512s-91.914-298.13-112.29-451.61c-7.7075-58.045-3.5132-175.49-3.5132-175.49l85.632 17.595 18.078-90.642c21.532 11.62 29.02-7.9946 40.53-18.662l1.367-15.471c1.3096-14.978-11.905-14.636-16.198-20.584-3.5757-4.9544-12.628-5.1053-14.866-14.168-1.2991-5.261-14.875-24.562-24.332-10.292l-16.198 24.46c-22.86-14.405-36.104-3.5226-37.147 1.9216-0.79941 4.1742 23.88 2.0654 28.364 23.808 6.7161 11.202 2.4532 8.232 14.866 14.819l-11.482 61.166-0.27339-0.68397-109.39-46.412-3.3148-29.899 29.731 1.5634-1.777-12.018c-2.5387 0.69666-5.2227 1.0748-7.9966 1.0748-15.928 0-28.843-12.308-28.843-27.489 0-1.1761 0.0813-2.3511 0.23921-3.5175l28.603 3.5175h4.1008l-7.5524-51.265 33.046-17.295-97.429-20.454zm-39.424 240.76 21.687 129.95-58.198-44.979 36.51-84.974zm-18.616 217.7-0.77025 2.3827 9.907 2.0755 0.60841-2.2377-9.7452-2.2205z" stroke="#000" stroke-width="1.0676"/>
 </g>
</svg>
